<svg width="16" height="16" viewBox="0 0 16 16" fill="none" xmlns="http://www.w3.org/2000/svg">
<path d="M16 16L13 13H5.5C5.0875 13 4.73438 12.8531 4.44063 12.5594C4.14687 12.2656 4 11.9125 4 11.5V10.5H12C12.4125 10.5 12.7656 10.3531 13.0594 10.0594C13.3531 9.76562 13.5 9.4125 13.5 9V4H14.5C14.9125 4 15.2656 4.14688 15.5594 4.44063C15.8531 4.73438 16 5.0875 16 5.5V16ZM1.5 8.375L2.375 7.5H10.5V1.5H1.5V8.375ZM0 12V1.5C0 1.0875 0.146875 0.734376 0.440625 0.440626C0.734375 0.146876 1.0875 0 1.5 0H10.5C10.9125 0 11.2656 0.146876 11.5594 0.440626C11.8531 0.734376 12 1.0875 12 1.5V7.5C12 7.9125 11.8531 8.26562 11.5594 8.55938C11.2656 8.85313 10.9125 9 10.5 9H3L0 12Z" fill="white"/>
</svg>
