<svg width="25" height="24" viewBox="0 0 25 24" fill="none" xmlns="http://www.w3.org/2000/svg">
<path d="M12.5 12C11.5375 12 10.7135 11.6573 10.0281 10.9719C9.34271 10.2865 9 9.4625 9 8.5C9 7.5375 9.34271 6.71354 10.0281 6.02812C10.7135 5.34271 11.5375 5 12.5 5C13.4625 5 14.2865 5.34271 14.9719 6.02812C15.6573 6.71354 16 7.5375 16 8.5C16 9.4625 15.6573 10.2865 14.9719 10.9719C14.2865 11.6573 13.4625 12 12.5 12ZM5.5 17.25V16.55C5.5 16.0542 5.6276 15.5984 5.88281 15.1828C6.13802 14.7672 6.47708 14.45 6.9 14.2312C7.80417 13.7792 8.72292 13.4401 9.65625 13.2141C10.5896 12.988 11.5375 12.875 12.5 12.875C13.4625 12.875 14.4104 12.988 15.3438 13.2141C16.2771 13.4401 17.1958 13.7792 18.1 14.2312C18.5229 14.45 18.862 14.7672 19.1172 15.1828C19.3724 15.5984 19.5 16.0542 19.5 16.55V17.25C19.5 17.7312 19.3286 18.1432 18.9859 18.4859C18.6432 18.8286 18.2312 19 17.75 19H7.25C6.76875 19 6.35677 18.8286 6.01406 18.4859C5.67135 18.1432 5.5 17.7312 5.5 17.25Z" fill="#76767E"/>
</svg>
