<svg width="7" height="4" viewBox="0 0 7 4" fill="none" xmlns="http://www.w3.org/2000/svg">
<path d="M3.08333 3.71842L0.1225 0.756133C0.0816668 0.715161 0.0510417 0.670855 0.030625 0.623216C0.0102084 0.575577 0 0.527452 0 0.478841C0 0.381619 0.0343753 0.296549 0.103125 0.223633C0.171875 0.150716 0.2625 0.114258 0.375 0.114258H6.58333C6.69583 0.114258 6.78646 0.151758 6.85521 0.226758C6.92396 0.301758 6.95833 0.389258 6.95833 0.489258C6.95833 0.503147 6.9175 0.591828 6.83583 0.7553L3.875 3.71842C3.81944 3.77398 3.75694 3.81565 3.6875 3.84342C3.61806 3.8712 3.54861 3.88509 3.47917 3.88509C3.40972 3.88509 3.34028 3.8712 3.27083 3.84342C3.20139 3.81565 3.13889 3.77398 3.08333 3.71842Z" fill="#76767E"/>
</svg>
