<svg width="32" height="32" viewBox="0 0 32 32" fill="none" xmlns="http://www.w3.org/2000/svg">
<rect width="32" height="32" rx="6" fill="#1C1B1F"/>
<path d="M27.1867 11.1042L25.5313 8.95158C25.1961 8.51585 24.6766 8.26074 24.1272 8.26074H7.87109C7.32177 8.26074 6.80224 8.51585 6.46707 8.95158L4.81166 11.1042C4.57331 11.4133 4.44482 11.7931 4.44482 12.1842V16.454C4.44482 17.4316 5.23808 18.2248 6.21568 18.2248H8.16344C8.71276 18.2248 9.23229 17.9697 9.56746 17.534L10.3402 16.5285C10.6754 16.0927 11.1949 15.8376 11.7443 15.8376H20.2559C20.8052 15.8376 21.3248 16.0927 21.6599 16.5285L22.4327 17.534C22.7679 17.9697 23.2874 18.2248 23.8367 18.2248H25.7845C26.7621 18.2248 27.5554 17.4316 27.5554 16.454V12.1842C27.5554 11.7931 27.4269 11.4133 27.1885 11.1042H27.1867Z" fill="white" fill-opacity="0.5"/>
<path d="M21.1199 23.7385H10.8765C9.48176 23.7385 8.69223 22.0365 9.54321 20.8597L11.4779 18.1875C11.7964 17.7481 12.2898 17.4893 12.8112 17.4893H19.187C19.7084 17.4893 20.2019 17.7462 20.5203 18.1875L22.455 20.8597C23.306 22.0346 22.5165 23.7385 21.1218 23.7385H21.1199Z" fill="#4BC586"/>
</svg>
