<svg width="15" height="14" viewBox="0 0 15 14" fill="none" xmlns="http://www.w3.org/2000/svg">
<path d="M6.58929 7.73752L5.51786 6.70148C5.38691 6.57271 5.2381 6.50832 5.07143 6.50832C4.90476 6.50832 4.75595 6.57271 4.625 6.70148C4.49405 6.83025 4.42857 6.97951 4.42857 7.14926C4.42857 7.31901 4.49405 7.46827 4.625 7.59704L6.14286 9.08965C6.27381 9.21842 6.42262 9.28281 6.58929 9.28281C6.75595 9.28281 6.90476 9.21842 7.03571 9.08965L10.375 5.80592C10.506 5.67714 10.5714 5.52788 10.5714 5.35813C10.5714 5.18839 10.506 5.03913 10.375 4.91035C10.244 4.78158 10.0952 4.71719 9.92857 4.71719C9.76191 4.71719 9.6131 4.78158 9.48214 4.91035L6.58929 7.73752ZM4.83929 13.6904L3.78571 11.9871L1.82143 11.5481C1.65476 11.5129 1.52381 11.4339 1.42857 11.311C1.33333 11.1881 1.29762 11.0447 1.32143 10.8808L1.5 8.89649L0.160714 7.42144C0.0535714 7.29267 0 7.15219 0 7C0 6.84781 0.0535714 6.70733 0.160714 6.57856L1.5 5.10351L1.32143 3.11922C1.29762 2.95533 1.33333 2.81192 1.42857 2.689C1.52381 2.56608 1.65476 2.48706 1.82143 2.45194L3.78571 2.01294L4.83929 0.309612C4.92262 0.180838 5.03869 0.0901109 5.1875 0.0374307C5.33631 -0.0152495 5.4881 -0.0123229 5.64286 0.0462107L7.5 0.836414L9.35714 0.0462107C9.5119 -0.0123229 9.66369 -0.0152495 9.8125 0.0374307C9.96131 0.0901109 10.0774 0.180838 10.1607 0.309612L11.2143 2.01294L13.1786 2.45194C13.3452 2.48706 13.4762 2.56608 13.5714 2.689C13.6667 2.81192 13.7024 2.95533 13.6786 3.11922L13.5 5.10351L14.8393 6.57856C14.9464 6.70733 15 6.84781 15 7C15 7.15219 14.9464 7.29267 14.8393 7.42144L13.5 8.89649L13.6786 10.8808C13.7024 11.0447 13.6667 11.1881 13.5714 11.311C13.4762 11.4339 13.3452 11.5129 13.1786 11.5481L11.2143 11.9871L10.1607 13.6904C10.0774 13.8192 9.96131 13.9099 9.8125 13.9626C9.66369 14.0153 9.5119 14.0123 9.35714 13.9538L7.5 13.1636L5.64286 13.9538C5.4881 14.0123 5.33631 14.0153 5.1875 13.9626C5.03869 13.9099 4.92262 13.8192 4.83929 13.6904Z" fill="black"/>
</svg>
